PathFileType	4	(X/Y/Z)	Run_200 02
DataRate	CameraRate	NumFrames	NumMarkers	Units	OrigDataRate	OrigDataStartFrame	OrigNumFrames
100	100	8	42	mm	100	18	128
Frame#	Time	LPSI			RPSI			RTH1			RTH2			RTH3			LTH1			LTH2			LTH3			RTB1			RTB2			RTB3			LTB1			LTB2			LTB3			RCAL			RTOE			RMT5			LCAL			LTOE			LMT5			LACR			RACR			CLAV			C7			RUA1			RUA2			RUA3			RLEL			RMEL			LUA1			LUA2			LUA3			LLEL			LMEL			RFAsuperior			RFAradius			RFAulna			LFAsuperior			LFAradius			LFAulna			RASI			LASI			
		X1	Y1	Z1	X2	Y2	Z2	X3	Y3	Z3	X4	Y4	Z4	X5	Y5	Z5	X6	Y6	Z6	X7	Y7	Z7	X8	Y8	Z8	X9	Y9	Z9	X10	Y10	Z10	X11	Y11	Z11	X12	Y12	Z12	X13	Y13	Z13	X14	Y14	Z14	X15	Y15	Z15	X16	Y16	Z16	X17	Y17	Z17	X18	Y18	Z18	X19	Y19	Z19	X20	Y20	Z20	X21	Y21	Z21	X22	Y22	Z22	X23	Y23	Z23	X24	Y24	Z24	X25	Y25	Z25	X26	Y26	Z26	X27	Y27	Z27	X28	Y28	Z28	X29	Y29	Z29	X30	Y30	Z30	X31	Y31	Z31	X32	Y32	Z32	X33	Y33	Z33	X34	Y34	Z34	X35	Y35	Z35	X36	Y36	Z36	X37	Y37	Z37	X38	Y38	Z38	X39	Y39	Z39	X40	Y40	Z40	X41	Y41	Z41	X42	Y42	Z42	

1	0.8100000000000001	621.646224	1135.300602	-523.874721	613.160003	1133.132454	-440.073728	733.574506	926.847627	-276.18445	815.174615	800.747311	-285.75191	765.16067	685.774685	-311.045812	725.7217889999999	936.611708	-654.840733	762.329792	807.400793	-626.967576	647.517488	692.995413	-633.682939	874.398605	455.911558	-353.25301	833.693055	350.783793	-307.846139	887.735275	256.812955	-359.231942	583.371251	463.614727	-578.097021	490.140164	449.234747	-644.915849	430.222191	326.210342	-579.08829	783.476306	118.147771	-406.662861	1011.424433	111.116373	-363.165964	968.95762	61.349936	-291.943303	255.973741	336.26581	-559.753022	346.758088	123.404995	-561.357676	292.872637	124.820307	-634.620841	802.922816	1583.68172	-619.501176	707.447183	1582.255439	-305.922465	822.708038	1540.938168	-422.912977	702.154273	1613.131762	-490.544044	603.826612	1517.286392	-238.807496	529.482407	1460.450267	-285.846064	525.414125	1434.04701	-208.497002	478.22327	1347.172399	-178.502343	457.052811	1328.398693	-258.658482	795.238299	1490.01184	-727.529849	729.989999	1411.655391	-749.133183	794.041104	1384.464486	-788.892481	812.35443	1299.562706	-823.8976259999999	747.691678	1259.709942	-798.001106	534.841448	1289.351229	-175.986939	730.6673500000001	1244.556077	-231.181919	688.521498	1185.457199	-225.890811	880.279031	1281.653521	-720.646027	907.7066600000001	1335.821443	-575.313541	913.7473680000001	1268.404683	-575.277727	784.183666	1064.145344	-341.819647	798.947167	1050.044453	-592.736498	
2	0.82	622.621631	1129.372256	-522.41435	613.977075	1126.595662	-438.584986	733.9653510000001	921.802191	-274.647893	815.631999	795.628971	-282.737923	765.727966	680.654909	-311.011927	729.323941	931.51784	-653.744271	767.612156	802.964962	-625.75715	654.972304	686.747126	-632.671734	874.460793	450.146225	-354.06429	833.5288880000001	345.258506	-308.449928	886.333075	250.946609	-360.523136	589.167253	458.802865	-577.72954	495.12308	449.025863	-644.406338	429.657775	328.79034	-578.75404	779.361214	116.418708	-407.419171	1007.393576	100.477011	-368.838686	964.448053	53.68276	-296.031999	255.420994	346.102919	-558.756669	339.070898	130.316362	-563.079997	285.46003	131.629541	-636.573977	802.630617	1579.280917	-617.874879	708.243068	1575.977946	-302.884884	823.265761	1535.678861	-420.564488	702.175202	1608.344866	-487.200153	605.098167	1509.919609	-235.179175	530.738752	1452.580342	-283.029527	527.20403	1426.129377	-205.686641	480.694798	1338.338138	-176.124119	460.088091	1319.372908	-256.492756	792.361542	1485.568084	-726.320101	726.713086	1407.373232	-746.469711	790.240535	1380.738647	-787.674818	808.291069	1295.715918	-822.845012	743.26838	1256.531161	-796.3370629999999	538.132265	1281.049553	-173.577366	734.672164	1238.47891	-228.44237	693.146813	1179.016883	-223.316975	877.425152	1274.82816	-720.60074	907.364389	1326.429436	-574.672864	912.126534	1259.131193	-575.78802	785.313762	1058.271344	-338.661494	799.8873630000001	1044.736282	-589.631826	
3	0.83	623.449909	1122.386009	-520.964443	614.783889	1119.026356	-436.991362	734.858103	915.587184	-274.121854	817.201607	789.943078	-281.021877	766.6751850000001	674.819254	-310.66432	732.597184	925.526181	-652.688472	772.912236	797.6258319999999	-625.124323	662.715657	679.4407660000001	-631.894598	873.862089	442.79331	-354.952111	831.719875	338.472156	-309.50552	881.579834	243.513866	-362.890046	595.935935	453.107354	-577.7268759999999	501.028735	448.17292	-643.941103	430.508933	330.714884	-578.566816	769.992812	114.003289	-409.175239	998.402838	89.132319	-375.256721	954.477114	48.720822	-299.017611	256.493	354.918684	-557.010808	333.651513	136.754152	-565.736753	280.325135	137.967641	-639.47678	801.934176	1573.883864	-615.957735	708.89814	1568.715363	-299.850194	823.696333	1529.567448	-418.27694	702.07734	1602.660405	-483.940507	606.54276	1500.985553	-231.380157	532.105398	1443.191719	-279.578959	529.49414	1416.38277	-202.432683	483.829394	1327.790348	-173.158456	463.566444	1308.761018	-253.545801	789.2969399999999	1480.527434	-725.045859	723.217398	1402.544494	-743.785295	786.045058	1376.210448	-786.434036	803.536415	1291.156774	-821.823843	738.079155	1252.680692	-794.731601	542.286697	1271.06942	-170.784408	739.358016	1230.84139	-225.800125	698.372588	1170.87967	-220.914112	874.03821	1266.659682	-720.923567	906.964461	1315.106671	-574.3920910000001	909.791161	1248.155531	-576.418398	786.918812	1052.07822	-336.061729	801.299592	1039.117771	-587.119004	
4	0.84	623.9517540000001	1114.381082	-519.48893	615.4449499999999	1110.531593	-435.305423	736.738243	908.055368	-274.502592	819.993376	783.79552	-280.367624	768.60239	668.158336	-309.895839	735.5048420000001	918.624633	-651.55178	778.211276	791.40497	-624.939965	670.835192	671.135735	-631.395881	872.368784	433.946444	-356.403065	827.459935	330.684612	-311.723746	872.202353	234.76564	-367.041699	603.651172	446.7057	-578.13158	507.868761	446.636278	-643.541165	432.819182	332.023386	-578.45813	754.2673559999999	109.07748	-412.512932	983.5559960000001	79.852317	-380.333975	938.619042	47.227738	-300.199956	259.129756	362.598388	-554.85203	330.578122	142.647045	-568.839253	277.528466	143.724083	-642.822191	800.821493	1567.629001	-613.718377	709.482541	1560.613538	-296.854266	824.1218280000001	1522.522784	-415.881567	701.86256	1596.090895	-480.825648	608.157277	1490.568139	-227.561346	533.751001	1432.437677	-275.587047	532.302062	1404.826825	-198.886351	487.846771	1315.873618	-169.564531	467.43294	1296.671749	-249.843083	786.180828	1474.915072	-723.558729	719.479935	1397.276834	-741.175018	781.570775	1370.993543	-785.1386	798.197824	1286.031368	-820.885543	732.260814	1248.212365	-793.293099	547.315307	1259.615959	-167.590996	744.707665	1221.769141	-223.188974	704.532705	1161.402818	-218.613354	870.11056	1257.43507	-721.701355	906.4218980000001	1301.984013	-574.584935	906.922826	1235.482286	-577.697663	788.693972	1045.450534	-334.290386	802.860643	1033.072412	-585.469168	
5	0.85	623.855033	1105.385394	-517.951018	615.65687	1101.289195	-433.60109	739.797833	899.795574	-275.288491	823.407764	777.303026	-280.540183	771.638553	660.819476	-308.772959	738.0759	910.745647	-650.311072	783.524016	784.3972659999999	-625.000456	679.414516	661.973468	-631.093553	869.739796	424.168873	-358.625666	820.47176	322.58356	-315.103539	858.3972680000001	225.505745	-372.582597	612.435053	439.913196	-578.892241	515.805895	444.37229	-643.2305270000001	436.722918	332.725021	-578.352496	733.241799	101.176469	-416.832993	963.980048	74.41244399999999	-382.998345	918.514331	47.905473	-300.14539	263.49247	369.18091	-552.670945	329.686751	147.915968	-571.883189	276.905656	148.839162	-646.100428	799.35677	1560.822267	-611.619467	710.09037	1551.794529	-293.898428	824.695198	1514.50726	-413.256874	701.513824	1588.570702	-477.904573	610.006071	1478.948428	-223.748898	535.796959	1420.452872	-271.204799	535.74258	1391.719733	-195.009706	492.953896	1302.716884	-165.572161	471.933059	1283.235731	-245.625204	782.946269	1468.718841	-721.888519	715.454505	1391.583442	-738.698182	776.869819	1365.173442	-783.795695	792.402831	1280.467227	-820.146822	725.895094	1243.214261	-792.087914	553.277018	1246.900056	-164.069241	750.741621	1211.395346	-220.704257	711.658675	1150.694302	-216.290835	865.623711	1247.452398	-723.006174	905.593444	1287.245456	-575.345158	904.034341	1220.940077	-580.790091	790.2399339999999	1038.194452	-332.964304	804.185434	1026.366327	-584.22414	
6	0.86	623.023205	1095.613589	-516.368074	615.220291	1091.790506	-431.920293	743.216737	891.95373	-275.577577	826.291821	770.530377	-281.361018	774.946625	653.2134579999999	-307.621474	740.451746	901.906712	-649.100685	788.892154	776.881661	-625.084065	688.452815	652.239649	-630.825744	866.03297	414.452595	-361.331123	811.693967	314.969834	-318.868551	842.362028	216.860933	-378.25757	622.347319	433.066302	-579.67355	525.056898	441.424182	-643.031438	442.358801	332.870314	-578.137791	710.231327	92.413811	-421.020792	942.755384	72.358082	-383.908989	897.080791	48.922395	-299.963508	269.783057	374.744693	-550.798017	330.964161	152.500495	-574.529734	278.451084	153.278237	-648.978158	797.604453	1553.822844	-610.2303470000001	710.780582	1542.386719	-290.914959	825.4970070000001	1505.715343	-410.547751	700.967013	1580.071285	-475.184317	612.16304	1466.478388	-219.799874	538.247191	1407.338365	-266.486688	540.028877	1377.392451	-190.735128	499.206954	1288.346235	-161.528078	477.507185	1268.660802	-241.211045	779.40574	1462.01521	-720.239101	711.152589	1385.470237	-736.362147	771.931234	1358.832835	-782.4341429999999	786.187557	1274.613561	-819.688003	719.016148	1237.87976	-791.124242	560.204294	1233.088108	-160.371563	757.536019	1199.840068	-218.564253	719.538772	1138.722569	-213.874459	860.552321	1236.943936	-724.885587	904.303978	1271.146266	-576.738731	901.400484	1204.569923	-586.412927	791.3675490000001	1030.317048	-331.594144	805.112014	1019.048188	-582.823492	
7	0.87	621.6313689999999	1085.709128	-514.805198	614.254297	1082.924187	-430.255448	745.44445	885.424425	-274.643238	827.717148	763.648916	-282.446897	777.225681	645.895475	-306.846632	742.838512	892.498007	-648.090117	794.374135	769.401662	-625.038421	697.891971	642.468395	-630.45079	861.647374	405.737046	-364.091038	802.766913	308.325283	-322.205233	826.75026	209.665093	-383.127622	633.209175	426.442058	-579.818702	535.754063	437.976079	-642.936594	449.803113	332.603297	-577.7069310000001	688.472695	85.84846400000001	-424.416924	922.693412	71.791622	-384.498085	876.53758	49.470728	-300.310069	277.962213	379.322531	-549.443527	334.780768	156.350483	-576.651022	282.538902	156.993738	-651.33279	795.648632	1546.888882	-609.690253	711.573099	1532.643234	-287.810847	826.492109	1496.603087	-408.070757	700.163412	1570.898393	-472.601573	614.702485	1453.338459	-215.555604	541.036732	1393.278138	-261.274655	545.421798	1362.023246	-186.215385	506.542584	1272.979534	-157.609301	484.432744	1253.225404	-236.818092	775.4165839999999	1455.017048	-718.818028	706.616134	1379.080335	-734.189073	766.720687	1352.106255	-781.068863	779.439754	1268.645058	-819.449697	711.656208	1232.526152	-790.330452	568.0977349999999	1218.326793	-156.685195	765.192595	1187.273434	-217.004427	728.129872	1125.689323	-211.41894	854.839019	1226.057594	-727.3494920000001	902.447818	1253.977271	-578.851009	898.558125	1186.961641	-593.83208	792.133089	1022.112434	-330.108798	805.699533	1011.5181	-581.28998	
8	0.88	620.000407	1076.702212	-513.3315219999999	613.116014	1075.55814	-428.672982	745.4917799999999	880.154205	-272.728315	827.655699	757.061715	-283.23278	777.821231	639.363301	-306.565255	745.320821	883.412989	-647.291957	800.0201489999999	762.683407	-624.8075260000001	707.714761	633.417974	-629.926059	856.904865	398.378749	-366.66529	794.563281	302.727869	-324.836782	812.5981	204.076758	-387.122659	644.809808	420.355284	-578.789774	547.865842	434.330442	-642.871244	459.049932	332.099637	-577.040094	668.846559	82.83715100000001	-427.022072	904.308261	71.175408	-385.519376	857.184322	49.801389	-301.127364	287.676496	382.864833	-548.70289	341.653398	159.409893	-578.215768	289.685113	159.920763	-653.1343429999999	793.668079	1540.124035	-609.5328960000001	712.494547	1523.003939	-284.553554	827.5700890000001	1487.70603	-406.008285	699.1997699999999	1561.873873	-470.047848	617.807311	1439.548679	-211.082212	544.1573	1378.591321	-255.325409	552.105509	1345.748793	-181.787257	514.972833	1257.096478	-153.761174	492.624604	1237.234282	-232.517303	770.999251	1448.051992	-717.6795540000001	701.823589	1372.756426	-732.25081	761.210234	1345.245851	-779.721308	772.018017	1262.73958	-819.2669990000001	703.869957	1227.505666	-789.560552	577.03122	1202.885196	-153.18121	773.794452	1174.038013	-216.130934	737.62819	1112.090822	-209.078287	848.375667	1214.955013	-730.321794	900.019765	1236.015966	-581.8056340000001	894.605803	1169.036218	-601.425009	792.634589	1014.076733	-328.829158	805.998089	1004.235081	-580.223176	
